<svg xmlns="http://www.w3.org/2000/svg" xmlns:xlink="http://www.w3.org/1999/xlink" width="500" zoomAndPan="magnify" viewBox="0 0 375 374.999991" height="500" preserveAspectRatio="xMidYMid meet" version="1.0"><defs><g/><clipPath id="7546a2cbd5"><path d="M 71.8125 71.8125 L 303.5625 71.8125 L 303.5625 303.5625 L 71.8125 303.5625 Z M 71.8125 71.8125 " clip-rule="nonzero"/></clipPath><clipPath id="238da969f5"><path d="M 110 103.171875 L 246 103.171875 L 246 182 L 110 182 Z M 110 103.171875 " clip-rule="nonzero"/></clipPath><clipPath id="c9f7f5fc0c"><path d="M 98.472656 185 L 106 185 L 106 190 L 98.472656 190 Z M 98.472656 185 " clip-rule="nonzero"/></clipPath></defs><g clip-path="url(#7546a2cbd5)"><path fill="#0f3537" d="M 296.394531 218.582031 C 293.457031 228.585938 288.96875 238.074219 283.402344 246.816406 C 278.808594 253.929688 273.582031 260.613281 267.707031 266.695312 C 266.949219 267.523438 266.101562 268.269531 265.296875 269.050781 C 264.476562 269.824219 263.679688 270.617188 262.839844 271.367188 L 260.296875 273.582031 L 259.023438 274.691406 L 257.703125 275.738281 L 255.066406 277.847656 C 254.171875 278.527344 253.25 279.175781 252.347656 279.84375 C 250.558594 281.210938 248.65625 282.414062 246.792969 283.679688 C 246.527344 283.863281 246.242188 284.050781 245.949219 284.25 C 245.644531 284.429688 245.332031 284.621094 245 284.820312 C 244.34375 285.210938 243.636719 285.636719 242.882812 286.085938 C 241.398438 287.019531 239.636719 287.898438 237.734375 288.910156 C 237.257812 289.15625 236.777344 289.425781 236.273438 289.667969 C 235.765625 289.902344 235.246094 290.144531 234.71875 290.390625 C 233.664062 290.875 232.566406 291.382812 231.4375 291.90625 C 229.125 292.808594 226.710938 293.894531 224.078125 294.738281 C 213.679688 298.507812 200.707031 300.839844 187.6875 300.894531 C 174.667969 300.839844 161.695312 298.507812 151.300781 294.738281 C 148.664062 293.894531 146.253906 292.808594 143.9375 291.90625 C 142.808594 291.382812 141.714844 290.875 140.65625 290.390625 C 140.128906 290.144531 139.609375 289.902344 139.101562 289.667969 C 138.597656 289.425781 138.117188 289.15625 137.640625 288.910156 C 135.738281 287.898438 133.976562 287.019531 132.492188 286.085938 C 131.738281 285.636719 131.03125 285.210938 130.375 284.820312 C 130.046875 284.621094 129.730469 284.433594 129.425781 284.25 C 129.132812 284.050781 128.851562 283.863281 128.582031 283.683594 C 121.507812 279.046875 114.863281 273.78125 108.824219 267.867188 C 102.453125 261.503906 96.882812 254.375 91.972656 246.816406 C 86.40625 238.078125 81.917969 228.585938 78.980469 218.582031 C 75.921875 208.613281 74.507812 198.152344 74.417969 187.6875 C 74.507812 177.222656 75.921875 166.761719 78.980469 156.792969 C 81.917969 146.789062 86.40625 137.300781 91.972656 128.558594 C 96.566406 121.445312 101.792969 114.761719 107.667969 108.679688 C 108.425781 107.851562 109.273438 107.105469 110.078125 106.324219 C 110.898438 105.550781 111.695312 104.757812 112.535156 104.007812 L 115.078125 101.792969 L 116.351562 100.683594 L 117.671875 99.636719 L 120.308594 97.527344 C 121.203125 96.847656 122.125 96.199219 123.027344 95.53125 C 124.816406 94.164062 126.71875 92.960938 128.582031 91.695312 C 128.847656 91.511719 129.132812 91.324219 129.425781 91.125 C 129.730469 90.945312 130.042969 90.753906 130.371094 90.554688 C 131.03125 90.164062 131.738281 89.738281 132.492188 89.289062 C 133.976562 88.355469 135.738281 87.476562 137.636719 86.464844 C 138.117188 86.21875 138.597656 85.949219 139.101562 85.707031 C 139.609375 85.472656 140.128906 85.230469 140.65625 84.984375 C 141.710938 84.496094 142.808594 83.992188 143.9375 83.46875 C 146.25 82.566406 148.664062 81.480469 151.296875 80.636719 C 161.695312 76.867188 174.667969 74.535156 187.6875 74.480469 C 200.707031 74.535156 213.679688 76.867188 224.074219 80.636719 C 226.710938 81.480469 229.121094 82.566406 231.4375 83.46875 C 232.566406 83.992188 233.660156 84.496094 234.71875 84.984375 C 235.246094 85.230469 235.765625 85.472656 236.273438 85.707031 C 236.777344 85.949219 237.257812 86.21875 237.734375 86.464844 C 239.636719 87.476562 241.398438 88.355469 242.882812 89.289062 C 243.636719 89.738281 244.34375 90.164062 245 90.554688 C 245.328125 90.753906 245.644531 90.941406 245.949219 91.125 C 246.242188 91.324219 246.523438 91.511719 246.792969 91.691406 C 253.867188 96.328125 260.511719 101.59375 266.550781 107.507812 C 272.921875 113.871094 278.492188 121 283.402344 128.558594 C 288.96875 137.296875 293.457031 146.789062 296.394531 156.792969 C 299.453125 166.761719 300.867188 177.222656 300.957031 187.6875 C 300.867188 198.152344 299.453125 208.613281 296.394531 218.582031 Z M 303.5625 187.609375 L 303.558594 187.601562 C 303.464844 176.917969 302.027344 166.226562 298.914062 156.03125 C 295.921875 145.808594 291.335938 136.101562 285.621094 127.1875 L 282.871094 123.058594 C 282.871094 123.058594 282.078125 121.945312 280.886719 120.28125 C 279.738281 118.578125 277.984375 116.484375 276.308594 114.332031 C 274.503906 112.285156 272.769531 110.171875 271.3125 108.734375 C 269.898438 107.253906 268.953125 106.269531 268.953125 106.269531 C 268.953125 106.269531 268.714844 106.027344 268.285156 105.613281 C 267.855469 105.199219 267.242188 104.605469 266.507812 103.894531 C 265.074219 102.433594 262.988281 100.671875 260.945312 98.863281 C 259.894531 97.992188 258.816406 97.15625 257.820312 96.355469 C 257.320312 95.957031 256.835938 95.574219 256.378906 95.207031 C 255.902344 94.863281 255.453125 94.542969 255.039062 94.242188 C 253.378906 93.042969 252.273438 92.246094 252.273438 92.246094 C 252.273438 92.246094 252.03125 92.050781 251.640625 91.796875 C 251.253906 91.539062 250.742188 91.195312 250.226562 90.851562 C 249.195312 90.160156 248.167969 89.472656 248.167969 89.472656 C 247.890625 89.289062 247.605469 89.09375 247.304688 88.890625 C 246.996094 88.703125 246.671875 88.507812 246.335938 88.304688 C 245.664062 87.898438 244.941406 87.464844 244.171875 87.003906 C 242.652344 86.046875 240.851562 85.140625 238.90625 84.105469 C 238.417969 83.851562 237.929688 83.574219 237.410156 83.328125 C 236.890625 83.085938 236.363281 82.835938 235.824219 82.585938 C 234.742188 82.085938 233.621094 81.566406 232.464844 81.03125 C 230.097656 80.101562 227.625 78.992188 224.929688 78.121094 C 214.292969 74.257812 201.007812 71.863281 187.6875 71.8125 C 174.367188 71.863281 161.082031 74.257812 150.441406 78.125 C 147.75 78.992188 145.277344 80.101562 142.910156 81.03125 C 141.753906 81.566406 140.632812 82.085938 139.550781 82.585938 C 139.011719 82.839844 138.480469 83.085938 137.960938 83.328125 C 137.445312 83.574219 136.953125 83.851562 136.464844 84.105469 C 134.523438 85.140625 132.722656 86.046875 131.203125 87.003906 C 130.433594 87.464844 129.710938 87.902344 129.039062 88.304688 C 128.703125 88.507812 128.378906 88.703125 128.070312 88.890625 C 127.769531 89.09375 127.480469 89.289062 127.207031 89.472656 C 127.207031 89.472656 126.179688 90.160156 125.148438 90.851562 C 124.632812 91.195312 124.121094 91.539062 123.734375 91.796875 C 123.34375 92.050781 123.101562 92.246094 123.101562 92.246094 C 123.101562 92.246094 121.996094 93.042969 120.335938 94.242188 C 119.921875 94.542969 119.472656 94.863281 118.996094 95.207031 C 118.539062 95.574219 118.054688 95.957031 117.554688 96.355469 C 116.558594 97.15625 115.480469 97.992188 114.429688 98.863281 C 112.386719 100.671875 110.300781 102.433594 108.867188 103.894531 C 108.132812 104.605469 107.519531 105.199219 107.089844 105.613281 C 106.660156 106.027344 106.421875 106.269531 106.421875 106.269531 C 106.421875 106.269531 105.476562 107.253906 104.0625 108.734375 C 102.605469 110.171875 100.871094 112.285156 99.066406 114.332031 C 97.390625 116.484375 95.632812 118.582031 94.488281 120.28125 C 93.296875 121.949219 92.5 123.058594 92.5 123.058594 L 89.753906 127.1875 C 84.039062 136.101562 79.453125 145.808594 76.460938 156.03125 C 73.347656 166.226562 71.910156 176.917969 71.816406 187.601562 L 71.8125 187.609375 L 71.8125 187.765625 L 71.816406 187.773438 C 71.910156 198.457031 73.347656 209.148438 76.460938 219.34375 C 79.453125 229.566406 84.039062 239.273438 89.753906 248.1875 L 92.503906 252.316406 C 92.503906 252.316406 93.296875 253.429688 94.488281 255.09375 C 95.636719 256.796875 97.390625 258.890625 99.066406 261.042969 C 100.871094 263.089844 102.605469 265.203125 104.0625 266.640625 C 105.476562 268.121094 106.421875 269.105469 106.421875 269.105469 C 106.421875 269.105469 106.660156 269.347656 107.089844 269.761719 C 107.519531 270.175781 108.132812 270.769531 108.867188 271.480469 C 110.300781 272.941406 112.386719 274.703125 114.429688 276.511719 C 115.480469 277.382812 116.558594 278.21875 117.554688 279.019531 C 118.054688 279.417969 118.539062 279.800781 118.996094 280.167969 C 119.472656 280.511719 119.921875 280.832031 120.335938 281.132812 C 121.996094 282.332031 123.101562 283.128906 123.101562 283.128906 C 123.101562 283.128906 123.34375 283.324219 123.734375 283.574219 C 124.121094 283.835938 124.632812 284.179688 125.148438 284.523438 C 126.179688 285.214844 127.207031 285.902344 127.207031 285.902344 C 127.484375 286.085938 127.769531 286.28125 128.070312 286.484375 C 128.378906 286.671875 128.703125 286.867188 129.039062 287.070312 C 129.710938 287.476562 130.433594 287.910156 131.203125 288.371094 C 132.722656 289.328125 134.523438 290.234375 136.46875 291.269531 C 136.957031 291.523438 137.445312 291.800781 137.964844 292.046875 C 138.484375 292.289062 139.011719 292.539062 139.550781 292.789062 C 140.632812 293.289062 141.753906 293.808594 142.910156 294.34375 C 145.277344 295.273438 147.75 296.382812 150.445312 297.253906 C 161.082031 301.117188 174.367188 303.507812 187.6875 303.5625 C 201.007812 303.507812 214.292969 301.117188 224.933594 297.25 C 227.625 296.382812 230.097656 295.273438 232.464844 294.34375 C 233.621094 293.808594 234.742188 293.289062 235.824219 292.789062 C 236.363281 292.535156 236.894531 292.289062 237.414062 292.046875 C 237.929688 291.800781 238.421875 291.523438 238.910156 291.269531 C 240.851562 290.234375 242.652344 289.328125 244.171875 288.371094 C 244.941406 287.910156 245.664062 287.472656 246.335938 287.070312 C 246.671875 286.867188 246.996094 286.671875 247.304688 286.484375 C 247.605469 286.28125 247.894531 286.085938 248.167969 285.902344 C 248.167969 285.902344 249.195312 285.214844 250.226562 284.523438 C 250.742188 284.179688 251.253906 283.835938 251.640625 283.574219 C 252.03125 283.324219 252.273438 283.128906 252.273438 283.128906 C 252.273438 283.128906 253.378906 282.332031 255.039062 281.132812 C 255.453125 280.832031 255.902344 280.511719 256.378906 280.167969 C 256.835938 279.800781 257.320312 279.417969 257.820312 279.019531 C 258.816406 278.21875 259.894531 277.382812 260.945312 276.511719 C 262.988281 274.703125 265.074219 272.941406 266.507812 271.480469 C 267.242188 270.769531 267.855469 270.175781 268.285156 269.761719 C 268.714844 269.347656 268.953125 269.105469 268.953125 269.105469 C 268.953125 269.105469 269.898438 268.121094 271.3125 266.640625 C 272.769531 265.203125 274.503906 263.089844 276.308594 261.042969 C 277.984375 258.890625 279.742188 256.792969 280.886719 255.09375 C 282.078125 253.425781 282.871094 252.316406 282.871094 252.316406 L 285.621094 248.1875 C 291.335938 239.273438 295.921875 229.566406 298.914062 219.34375 C 302.027344 209.148438 303.464844 198.457031 303.558594 187.773438 L 303.5625 187.765625 L 303.5625 187.609375 " fill-opacity="1" fill-rule="nonzero"/></g><g fill="#ff00ff" fill-opacity="1"><g transform="translate(113.713913, 239.171483)"><g><path d="M 0.433594 0 L 9.132812 0 L 9.132812 -8.640625 C 10.0625 -8.640625 9.511719 -8.667969 9.859375 -8.667969 C 15.394531 -8.757812 18.816406 -13.484375 18.816406 -19.3125 C 18.816406 -24.210938 15.65625 -28.964844 9.25 -28.964844 L 0.433594 -28.964844 Z M 9.132812 -20.296875 C 9.714844 -20.296875 10.234375 -19.773438 10.234375 -18.265625 C 10.234375 -16.757812 9.683594 -15.976562 9.132812 -15.976562 Z M 9.132812 -20.296875 "/></g></g></g><g fill="#ff00ff" fill-opacity="1"><g transform="translate(132.964717, 239.171483)"><g><path d="M 10.671875 0.433594 C 18.703125 0.433594 20.90625 -5.539062 20.90625 -14.527344 C 20.90625 -23.457031 18.703125 -29.429688 10.671875 -29.429688 C 2.636719 -29.429688 0.433594 -23.457031 0.433594 -14.527344 C 0.433594 -5.539062 2.636719 0.433594 10.671875 0.433594 Z M 10.671875 -20.617188 C 11.859375 -20.617188 12.207031 -18.207031 12.234375 -14.207031 C 12.265625 -10.699219 11.859375 -8.351562 10.671875 -8.351562 C 9.480469 -8.351562 9.132812 -10.699219 9.132812 -14.207031 C 9.132812 -18.207031 9.480469 -20.585938 10.671875 -20.617188 Z M 10.671875 -20.617188 "/></g></g></g><g fill="#ff00ff" fill-opacity="1"><g transform="translate(154.302957, 239.171483)"><g><path d="M 0.433594 0 L 9.132812 0 L 9.132812 -10.960938 L 12.640625 0 L 21.109375 0.0273438 L 16.816406 -12.730469 C 18.265625 -13.65625 20.09375 -15.746094 20.09375 -19.890625 C 20.09375 -26.675781 14.496094 -28.964844 10.640625 -28.964844 L 0.433594 -28.964844 Z M 9.859375 -20.847656 C 11.859375 -20.761719 11.683594 -16.644531 9.828125 -16.671875 L 9.132812 -16.671875 L 9.132812 -20.875 Z M 9.859375 -20.847656 "/></g></g></g><g fill="#00ffff" fill-opacity="1"><g transform="translate(113.713913, 238.083954)"><g><path d="M 0.433594 0 L 9.132812 0 L 9.132812 -8.640625 C 10.0625 -8.640625 9.511719 -8.667969 9.859375 -8.667969 C 15.394531 -8.757812 18.816406 -13.484375 18.816406 -19.3125 C 18.816406 -24.210938 15.65625 -28.964844 9.25 -28.964844 L 0.433594 -28.964844 Z M 9.132812 -20.296875 C 9.714844 -20.296875 10.234375 -19.773438 10.234375 -18.265625 C 10.234375 -16.757812 9.683594 -15.976562 9.132812 -15.976562 Z M 9.132812 -20.296875 "/></g></g></g><g fill="#00ffff" fill-opacity="1"><g transform="translate(132.964717, 238.083954)"><g><path d="M 10.671875 0.433594 C 18.703125 0.433594 20.90625 -5.539062 20.90625 -14.527344 C 20.90625 -23.457031 18.703125 -29.429688 10.671875 -29.429688 C 2.636719 -29.429688 0.433594 -23.457031 0.433594 -14.527344 C 0.433594 -5.539062 2.636719 0.433594 10.671875 0.433594 Z M 10.671875 -20.617188 C 11.859375 -20.617188 12.207031 -18.207031 12.234375 -14.207031 C 12.265625 -10.699219 11.859375 -8.351562 10.671875 -8.351562 C 9.480469 -8.351562 9.132812 -10.699219 9.132812 -14.207031 C 9.132812 -18.207031 9.480469 -20.585938 10.671875 -20.617188 Z M 10.671875 -20.617188 "/></g></g></g><g fill="#00ffff" fill-opacity="1"><g transform="translate(154.302957, 238.083954)"><g><path d="M 0.433594 0 L 9.132812 0 L 9.132812 -10.960938 L 12.640625 0 L 21.109375 0.0273438 L 16.816406 -12.730469 C 18.265625 -13.65625 20.09375 -15.746094 20.09375 -19.890625 C 20.09375 -26.675781 14.496094 -28.964844 10.640625 -28.964844 L 0.433594 -28.964844 Z M 9.859375 -20.847656 C 11.859375 -20.761719 11.683594 -16.644531 9.828125 -16.671875 L 9.132812 -16.671875 L 9.132812 -20.875 Z M 9.859375 -20.847656 "/></g></g></g><g fill="#ff0000" fill-opacity="1"><g transform="translate(113.713913, 238.62772)"><g><path d="M 0.433594 0 L 9.132812 0 L 9.132812 -8.640625 C 10.0625 -8.640625 9.511719 -8.667969 9.859375 -8.667969 C 15.394531 -8.757812 18.816406 -13.484375 18.816406 -19.3125 C 18.816406 -24.210938 15.65625 -28.964844 9.25 -28.964844 L 0.433594 -28.964844 Z M 9.132812 -20.296875 C 9.714844 -20.296875 10.234375 -19.773438 10.234375 -18.265625 C 10.234375 -16.757812 9.683594 -15.976562 9.132812 -15.976562 Z M 9.132812 -20.296875 "/></g></g></g><g fill="#ff0000" fill-opacity="1"><g transform="translate(132.964717, 238.62772)"><g><path d="M 10.671875 0.433594 C 18.703125 0.433594 20.90625 -5.539062 20.90625 -14.527344 C 20.90625 -23.457031 18.703125 -29.429688 10.671875 -29.429688 C 2.636719 -29.429688 0.433594 -23.457031 0.433594 -14.527344 C 0.433594 -5.539062 2.636719 0.433594 10.671875 0.433594 Z M 10.671875 -20.617188 C 11.859375 -20.617188 12.207031 -18.207031 12.234375 -14.207031 C 12.265625 -10.699219 11.859375 -8.351562 10.671875 -8.351562 C 9.480469 -8.351562 9.132812 -10.699219 9.132812 -14.207031 C 9.132812 -18.207031 9.480469 -20.585938 10.671875 -20.617188 Z M 10.671875 -20.617188 "/></g></g></g><g fill="#ff0000" fill-opacity="1"><g transform="translate(154.302957, 238.62772)"><g><path d="M 0.433594 0 L 9.132812 0 L 9.132812 -10.960938 L 12.640625 0 L 21.109375 0.0273438 L 16.816406 -12.730469 C 18.265625 -13.65625 20.09375 -15.746094 20.09375 -19.890625 C 20.09375 -26.675781 14.496094 -28.964844 10.640625 -28.964844 L 0.433594 -28.964844 Z M 9.859375 -20.847656 C 11.859375 -20.761719 11.683594 -16.644531 9.828125 -16.671875 L 9.132812 -16.671875 L 9.132812 -20.875 Z M 9.859375 -20.847656 "/></g></g></g><g fill="#ff00ff" fill-opacity="1"><g transform="translate(174.803753, 239.171483)"><g><path d="M 0.433594 -14.496094 C 0.433594 -5.800781 4.203125 0 12.234375 0 L 16.585938 0 L 16.644531 -8.554688 C 15.832031 -8.554688 14.789062 -8.554688 13.800781 -8.554688 C 10.410156 -8.554688 9.132812 -10.988281 9.132812 -14.496094 C 9.132812 -18.007812 10.554688 -20.441406 13.832031 -20.441406 C 14.585938 -20.441406 15.570312 -20.441406 16.644531 -20.441406 L 16.585938 -28.996094 L 12.234375 -28.996094 C 4.203125 -28.996094 0.433594 -23.195312 0.433594 -14.496094 Z M 0.433594 -14.496094 "/></g></g></g><g fill="#ff00ff" fill-opacity="1"><g transform="translate(191.880145, 239.171483)"><g><path d="M 0.433594 -28.964844 L 0.433594 0 L 9.132812 0 L 9.132812 -10.121094 L 11.25 -10.121094 L 11.25 0 L 19.949219 0 L 19.949219 -28.964844 L 11.25 -28.964844 L 11.25 -18.816406 L 9.132812 -18.816406 L 9.132812 -28.964844 Z M 0.433594 -28.964844 "/></g></g></g><g fill="#ff00ff" fill-opacity="1"><g transform="translate(212.261648, 239.171483)"><g><path d="M 0.433594 0 L 9.132812 0 L 9.132812 -28.964844 L 0.433594 -28.964844 Z M 0.433594 0 "/></g></g></g><g fill="#ff00ff" fill-opacity="1"><g transform="translate(221.829068, 239.171483)"><g><path d="M 0.433594 -14.496094 C 0.433594 -5.800781 4.203125 0 12.234375 0 L 16.585938 0 L 16.644531 -8.554688 C 15.832031 -8.554688 14.789062 -8.554688 13.800781 -8.554688 C 10.410156 -8.554688 9.132812 -10.988281 9.132812 -14.496094 C 9.132812 -18.007812 10.554688 -20.441406 13.832031 -20.441406 C 14.585938 -20.441406 15.570312 -20.441406 16.644531 -20.441406 L 16.585938 -28.996094 L 12.234375 -28.996094 C 4.203125 -28.996094 0.433594 -23.195312 0.433594 -14.496094 Z M 0.433594 -14.496094 "/></g></g></g><g fill="#ff00ff" fill-opacity="1"><g transform="translate(238.90546, 239.171483)"><g><path d="M 9.132812 0 L 9.132812 -9.714844 L 13.132812 0 L 21.921875 0 L 15.714844 -14.46875 L 21.921875 -28.964844 L 13.132812 -28.964844 L 9.132812 -19.253906 L 9.132812 -28.964844 L 0.433594 -28.964844 L 0.433594 0 Z M 9.132812 0 "/></g></g></g><g fill="#00ffff" fill-opacity="1"><g transform="translate(174.803753, 238.083954)"><g><path d="M 0.433594 -14.496094 C 0.433594 -5.800781 4.203125 0 12.234375 0 L 16.585938 0 L 16.644531 -8.554688 C 15.832031 -8.554688 14.789062 -8.554688 13.800781 -8.554688 C 10.410156 -8.554688 9.132812 -10.988281 9.132812 -14.496094 C 9.132812 -18.007812 10.554688 -20.441406 13.832031 -20.441406 C 14.585938 -20.441406 15.570312 -20.441406 16.644531 -20.441406 L 16.585938 -28.996094 L 12.234375 -28.996094 C 4.203125 -28.996094 0.433594 -23.195312 0.433594 -14.496094 Z M 0.433594 -14.496094 "/></g></g></g><g fill="#00ffff" fill-opacity="1"><g transform="translate(191.880145, 238.083954)"><g><path d="M 0.433594 -28.964844 L 0.433594 0 L 9.132812 0 L 9.132812 -10.121094 L 11.25 -10.121094 L 11.25 0 L 19.949219 0 L 19.949219 -28.964844 L 11.25 -28.964844 L 11.25 -18.816406 L 9.132812 -18.816406 L 9.132812 -28.964844 Z M 0.433594 -28.964844 "/></g></g></g><g fill="#00ffff" fill-opacity="1"><g transform="translate(212.261648, 238.083954)"><g><path d="M 0.433594 0 L 9.132812 0 L 9.132812 -28.964844 L 0.433594 -28.964844 Z M 0.433594 0 "/></g></g></g><g fill="#00ffff" fill-opacity="1"><g transform="translate(221.829068, 238.083954)"><g><path d="M 0.433594 -14.496094 C 0.433594 -5.800781 4.203125 0 12.234375 0 L 16.585938 0 L 16.644531 -8.554688 C 15.832031 -8.554688 14.789062 -8.554688 13.800781 -8.554688 C 10.410156 -8.554688 9.132812 -10.988281 9.132812 -14.496094 C 9.132812 -18.007812 10.554688 -20.441406 13.832031 -20.441406 C 14.585938 -20.441406 15.570312 -20.441406 16.644531 -20.441406 L 16.585938 -28.996094 L 12.234375 -28.996094 C 4.203125 -28.996094 0.433594 -23.195312 0.433594 -14.496094 Z M 0.433594 -14.496094 "/></g></g></g><g fill="#00ffff" fill-opacity="1"><g transform="translate(238.90546, 238.083954)"><g><path d="M 9.132812 0 L 9.132812 -9.714844 L 13.132812 0 L 21.921875 0 L 15.714844 -14.46875 L 21.921875 -28.964844 L 13.132812 -28.964844 L 9.132812 -19.253906 L 9.132812 -28.964844 L 0.433594 -28.964844 L 0.433594 0 Z M 9.132812 0 "/></g></g></g><g fill="#f9e830" fill-opacity="1"><g transform="translate(174.803753, 238.62772)"><g><path d="M 0.433594 -14.496094 C 0.433594 -5.800781 4.203125 0 12.234375 0 L 16.585938 0 L 16.644531 -8.554688 C 15.832031 -8.554688 14.789062 -8.554688 13.800781 -8.554688 C 10.410156 -8.554688 9.132812 -10.988281 9.132812 -14.496094 C 9.132812 -18.007812 10.554688 -20.441406 13.832031 -20.441406 C 14.585938 -20.441406 15.570312 -20.441406 16.644531 -20.441406 L 16.585938 -28.996094 L 12.234375 -28.996094 C 4.203125 -28.996094 0.433594 -23.195312 0.433594 -14.496094 Z M 0.433594 -14.496094 "/></g></g></g><g fill="#f9e830" fill-opacity="1"><g transform="translate(191.880145, 238.62772)"><g><path d="M 0.433594 -28.964844 L 0.433594 0 L 9.132812 0 L 9.132812 -10.121094 L 11.25 -10.121094 L 11.25 0 L 19.949219 0 L 19.949219 -28.964844 L 11.25 -28.964844 L 11.25 -18.816406 L 9.132812 -18.816406 L 9.132812 -28.964844 Z M 0.433594 -28.964844 "/></g></g></g><g fill="#f9e830" fill-opacity="1"><g transform="translate(212.261648, 238.62772)"><g><path d="M 0.433594 0 L 9.132812 0 L 9.132812 -28.964844 L 0.433594 -28.964844 Z M 0.433594 0 "/></g></g></g><g fill="#f9e830" fill-opacity="1"><g transform="translate(221.829068, 238.62772)"><g><path d="M 0.433594 -14.496094 C 0.433594 -5.800781 4.203125 0 12.234375 0 L 16.585938 0 L 16.644531 -8.554688 C 15.832031 -8.554688 14.789062 -8.554688 13.800781 -8.554688 C 10.410156 -8.554688 9.132812 -10.988281 9.132812 -14.496094 C 9.132812 -18.007812 10.554688 -20.441406 13.832031 -20.441406 C 14.585938 -20.441406 15.570312 -20.441406 16.644531 -20.441406 L 16.585938 -28.996094 L 12.234375 -28.996094 C 4.203125 -28.996094 0.433594 -23.195312 0.433594 -14.496094 Z M 0.433594 -14.496094 "/></g></g></g><g fill="#f9e830" fill-opacity="1"><g transform="translate(238.90546, 238.62772)"><g><path d="M 9.132812 0 L 9.132812 -9.714844 L 13.132812 0 L 21.921875 0 L 15.714844 -14.46875 L 21.921875 -28.964844 L 13.132812 -28.964844 L 9.132812 -19.253906 L 9.132812 -28.964844 L 0.433594 -28.964844 L 0.433594 0 Z M 9.132812 0 "/></g></g></g><g clip-path="url(#238da969f5)"><path fill="#242323" d="M 206.820312 116.453125 C 206.820312 116.453125 210.523438 135.378906 215.808594 137.722656 C 222.738281 140.792969 233.960938 131.402344 245.605469 143.359375 C 245.605469 143.359375 221.59375 146.238281 203.761719 166.488281 C 202.457031 161.609375 206.222656 152.824219 206.222656 152.824219 C 199.894531 159.992188 198.558594 169.484375 194.746094 172.625 C 185.570312 180.171875 155.667969 181.128906 155.667969 181.128906 C 144.402344 179.121094 149.441406 154.78125 110.382812 174.472656 C 110.382812 174.472656 112.277344 162.554688 121.957031 153.460938 C 126.109375 149.558594 112.488281 146.179688 119.972656 144.484375 C 126.390625 143.03125 170.582031 145.625 174.496094 146.0625 C 177.707031 146.421875 178.625 150.644531 175.851562 152.304688 C 175.804688 152.332031 175.757812 152.359375 175.710938 152.386719 C 174.035156 153.359375 168.582031 156.566406 168.582031 156.566406 C 168.582031 156.566406 171.972656 161.101562 173.367188 162.359375 C 180.199219 168.535156 189.511719 162.703125 191.757812 158.589844 C 196.660156 149.589844 197.375 117.992188 197.375 117.992188 C 196.15625 112.078125 199.972656 106.300781 205.898438 105.085938 L 211.871094 103.863281 C 215.265625 103.167969 218.535156 105.492188 218.984375 108.925781 C 219.410156 112.199219 217.082031 115.195312 213.796875 115.597656 L 206.820312 116.453125 " fill-opacity="1" fill-rule="nonzero"/></g><path fill="#242323" d="M 207.9375 179.433594 L 202.792969 179.945312 C 202.207031 180 201.683594 179.574219 201.625 178.988281 L 201.550781 178.238281 C 201.492188 177.652344 201.921875 177.128906 202.507812 177.070312 L 207.648438 176.5625 C 208.234375 176.503906 208.757812 176.929688 208.816406 177.515625 L 208.890625 178.269531 C 208.949219 178.855469 208.523438 179.375 207.9375 179.433594 " fill-opacity="1" fill-rule="nonzero"/><g clip-path="url(#c9f7f5fc0c)"><path fill="#242323" d="M 104.953125 188.636719 L 99.8125 189.144531 C 99.226562 189.203125 98.703125 188.777344 98.644531 188.191406 L 98.570312 187.4375 C 98.511719 186.855469 98.9375 186.332031 99.527344 186.273438 L 104.667969 185.765625 C 105.253906 185.707031 105.777344 186.132812 105.835938 186.71875 L 105.910156 187.472656 C 105.96875 188.054688 105.539062 188.578125 104.953125 188.636719 " fill-opacity="1" fill-rule="nonzero"/></g><path fill="#242323" d="M 230.546875 167.289062 C 226.925781 168.03125 223.390625 165.703125 222.648438 162.09375 C 221.90625 158.480469 224.234375 154.953125 227.855469 154.210938 C 231.472656 153.46875 235.007812 155.796875 235.75 159.40625 C 236.496094 163.019531 234.164062 166.546875 230.546875 167.289062 Z M 246.445312 156.0625 C 245.644531 152.160156 243.621094 148.824219 240.855469 146.363281 C 232.78125 147.890625 221.574219 151.242188 211.160156 158.589844 C 211.074219 160.109375 211.175781 161.664062 211.496094 163.226562 C 211.675781 164.09375 211.917969 164.933594 212.214844 165.742188 L 221.328125 164.839844 C 222.121094 164.761719 222.828125 165.339844 222.910156 166.132812 C 222.988281 166.925781 222.40625 167.632812 221.613281 167.710938 L 211.851562 168.679688 L 210.246094 168.839844 C 209.453125 168.917969 208.871094 169.625 208.949219 170.417969 C 209.03125 171.210938 209.738281 171.789062 210.53125 171.710938 L 215.421875 171.226562 L 229.191406 169.863281 C 229.984375 169.78125 230.695312 170.363281 230.773438 171.152344 C 230.851562 171.945312 230.269531 172.65625 229.476562 172.734375 L 213.714844 174.296875 L 212.128906 174.453125 C 211.332031 174.53125 210.753906 175.238281 210.832031 176.03125 C 210.910156 176.824219 211.617188 177.40625 212.414062 177.324219 L 222.6875 176.304688 C 225.734375 177.457031 229.136719 177.785156 232.5625 177.082031 C 242.210938 175.105469 248.429688 165.691406 246.445312 156.0625 " fill-opacity="1" fill-rule="nonzero"/><path fill="#242323" d="M 135.796875 186.710938 C 132.179688 187.453125 128.644531 185.125 127.902344 181.515625 C 127.15625 177.90625 129.488281 174.375 133.105469 173.632812 C 136.726562 172.890625 140.261719 175.21875 141.003906 178.828125 C 141.746094 182.441406 139.417969 185.96875 135.796875 186.710938 Z M 120.871094 167.261719 C 117.511719 171.050781 115.808594 176.214844 116.558594 181.535156 L 120.578125 181.136719 C 121.371094 181.058594 122.082031 181.636719 122.160156 182.429688 C 122.238281 183.222656 121.660156 183.929688 120.863281 184.007812 L 109.496094 185.136719 C 108.703125 185.214844 108.121094 185.921875 108.203125 186.714844 C 108.28125 187.507812 108.988281 188.085938 109.78125 188.007812 L 118.332031 187.160156 L 128.441406 186.160156 C 129.234375 186.078125 129.945312 186.660156 130.023438 187.453125 C 130.101562 188.246094 129.523438 188.953125 128.726562 189.03125 L 117.550781 190.136719 L 111.378906 190.75 C 110.585938 190.828125 110.003906 191.535156 110.082031 192.328125 C 110.160156 193.121094 110.871094 193.703125 111.664062 193.621094 L 122.566406 192.542969 C 126.613281 196.023438 132.175781 197.660156 137.8125 196.503906 C 145.039062 195.023438 150.339844 189.378906 151.714844 182.589844 C 145.070312 177.167969 147.90625 161.632812 120.871094 167.261719 " fill-opacity="1" fill-rule="nonzero"/><path fill="#242323" d="M 197.375 117.992188 L 189.480469 121.101562 C 188.207031 121.605469 186.824219 120.667969 186.824219 119.300781 C 186.824219 118.507812 187.304688 117.796875 188.039062 117.5 L 201.582031 112.0625 L 197.375 117.992188 " fill-opacity="1" fill-rule="nonzero"/><path fill="#242323" d="M 145.5625 110.960938 C 146.25 110.300781 146.636719 109.339844 146.515625 108.292969 C 146.339844 106.847656 145.167969 105.6875 143.71875 105.527344 C 141.800781 105.3125 140.175781 106.808594 140.175781 108.679688 C 140.175781 109.574219 140.550781 110.382812 141.148438 110.960938 C 135.996094 111.472656 131.367188 113.757812 127.882812 117.195312 L 133.320312 117.195312 C 134.25 117.195312 135.058594 117.914062 135.085938 118.839844 C 135.117188 119.796875 134.34375 120.585938 133.390625 120.585938 L 114.730469 120.585938 C 113.792969 120.585938 113.035156 121.34375 113.035156 122.277344 C 113.035156 123.214844 113.792969 123.972656 114.730469 123.972656 L 128.738281 123.972656 C 129.667969 123.972656 130.476562 124.6875 130.503906 125.613281 C 130.535156 126.570312 129.765625 127.359375 128.808594 127.359375 L 107.578125 127.359375 C 106.640625 127.359375 105.878906 128.117188 105.878906 129.050781 C 105.878906 129.988281 106.640625 130.746094 107.578125 130.746094 L 121.441406 130.746094 C 121.378906 131.429688 121.34375 132.121094 121.34375 132.820312 L 121.34375 135.625 L 145.496094 135.625 L 142.027344 132.164062 C 140.714844 132.816406 139.074219 132.597656 137.980469 131.503906 L 133.871094 127.402344 C 133.570312 127.101562 133.570312 126.613281 133.871094 126.308594 L 134 126.179688 C 134.304688 125.878906 134.796875 125.878906 135.097656 126.179688 L 138.175781 129.25 L 138.882812 128.542969 L 135.804688 125.472656 C 135.503906 125.171875 135.503906 124.679688 135.804688 124.378906 C 136.109375 124.078125 136.601562 124.078125 136.902344 124.378906 L 139.980469 127.449219 L 140.6875 126.742188 L 137.613281 123.671875 C 137.308594 123.371094 137.308594 122.878906 137.613281 122.578125 L 137.742188 122.445312 C 138.042969 122.144531 138.535156 122.144531 138.839844 122.445312 L 142.945312 126.546875 C 144.042969 127.640625 144.261719 129.277344 143.609375 130.585938 L 148.65625 135.625 L 158.679688 135.625 L 153.902344 130.855469 C 150.929688 131.375 148.933594 129.410156 147.828125 128.175781 C 146.539062 126.730469 146.457031 124.585938 147.828125 123.21875 C 149.199219 121.847656 151.347656 121.929688 152.796875 123.21875 C 154.035156 124.320312 156.003906 126.3125 155.484375 129.28125 L 161.84375 135.625 L 165.371094 135.625 L 165.371094 132.820312 C 165.371094 121.429688 156.6875 112.066406 145.5625 110.960938 " fill-opacity="1" fill-rule="nonzero"/><path fill="#242323" d="M 115.84375 139.613281 C 115.84375 140.527344 116.585938 141.265625 117.5 141.265625 L 169.214844 141.265625 C 170.128906 141.265625 170.871094 140.527344 170.871094 139.613281 C 170.871094 138.703125 170.128906 137.964844 169.214844 137.964844 L 117.5 137.964844 C 116.585938 137.964844 115.84375 138.703125 115.84375 139.613281 " fill-opacity="1" fill-rule="nonzero"/><g fill="#242323" fill-opacity="1"><g transform="translate(118.924156, 266.527686)"><g><path d="M 4.273438 -15.710938 L 0.753906 -15.710938 L 0.753906 0 L 4.273438 0 C 7.605469 0 9.457031 -2.828125 9.457031 -7.855469 C 9.457031 -12.882812 7.605469 -15.710938 4.273438 -15.710938 Z M 4.777344 -3.929688 L 4.023438 -3.929688 L 4.023438 -11.785156 L 4.777344 -11.785156 C 5.75 -11.785156 6.316406 -10.371094 6.316406 -7.855469 C 6.316406 -5.34375 5.75 -3.929688 4.777344 -3.929688 Z M 4.777344 -3.929688 "/></g></g></g><g fill="#242323" fill-opacity="1"><g transform="translate(138.087495, 266.527686)"><g><path d="M 4.023438 -12.035156 L 8.234375 -12.035156 L 8.234375 -15.710938 L 0.753906 -15.710938 L 0.753906 0 L 8.234375 0 L 8.234375 -3.707031 L 4.023438 -3.707031 L 4.023438 -6.066406 L 8.234375 -6.066406 L 8.234375 -9.679688 L 4.023438 -9.679688 Z M 4.023438 -12.035156 "/></g></g></g><g fill="#242323" fill-opacity="1"><g transform="translate(156.151035, 266.527686)"><g><path d="M 8.234375 -3.929688 L 4.023438 -3.929688 L 4.023438 -15.710938 L 0.753906 -15.710938 L 0.753906 0 L 8.234375 0 Z M 8.234375 -3.929688 "/></g></g></g><g fill="#242323" fill-opacity="1"><g transform="translate(174.120301, 266.527686)"><g><path d="M 4.023438 -15.710938 L 0.753906 -15.710938 L 0.753906 0 L 4.023438 0 Z M 4.023438 -15.710938 "/></g></g></g><g fill="#242323" fill-opacity="1"><g transform="translate(187.973155, 266.527686)"><g><path d="M 3.613281 -15.710938 L 5.71875 -6.695312 L 7.855469 -15.710938 L 11.1875 -15.710938 L 7.289062 0 L 4.148438 0 L 0.28125 -15.710938 Z M 3.613281 -15.710938 "/></g></g></g><g fill="#242323" fill-opacity="1"><g transform="translate(208.550524, 266.527686)"><g><path d="M 4.023438 -12.035156 L 8.234375 -12.035156 L 8.234375 -15.710938 L 0.753906 -15.710938 L 0.753906 0 L 8.234375 0 L 8.234375 -3.707031 L 4.023438 -3.707031 L 4.023438 -6.066406 L 8.234375 -6.066406 L 8.234375 -9.679688 L 4.023438 -9.679688 Z M 4.023438 -12.035156 "/></g></g></g><g fill="#242323" fill-opacity="1"><g transform="translate(226.61406, 266.527686)"><g><path d="M 8.078125 -6.789062 C 8.988281 -7.605469 9.457031 -8.925781 9.457031 -10.683594 C 9.457031 -13.890625 7.949219 -15.710938 5.214844 -15.710938 L 0.753906 -15.710938 L 0.753906 0 L 4.023438 0 L 4.023438 -5.59375 L 4.964844 -5.59375 C 5.875 -5.214844 6.378906 -4.304688 6.378906 -2.921875 L 6.378906 0 L 9.394531 0 L 9.394531 -2.609375 C 9.394531 -4.460938 8.957031 -5.875 8.078125 -6.789062 Z M 5.28125 -9.207031 L 4.023438 -9.207031 L 4.023438 -12.035156 L 5.28125 -12.035156 C 6.097656 -12.035156 6.566406 -11.5 6.566406 -10.589844 C 6.566406 -9.710938 6.097656 -9.207031 5.28125 -9.207031 Z M 5.28125 -9.207031 "/></g></g></g><g fill="#242323" fill-opacity="1"><g transform="translate(245.808823, 266.527686)"><g><path d="M 10.023438 -15.710938 L 6.628906 -15.710938 L 5.152344 -10.183594 L 3.675781 -15.710938 L 0.28125 -15.710938 L 3.519531 -6.441406 L 3.519531 0 L 6.789062 0 L 6.789062 -6.441406 Z M 10.023438 -15.710938 "/></g></g></g></svg>